<svg id="visual" viewBox="0 0 900 600" width="900" height="600" xmlns="http://www.w3.org/2000/svg" xmlns:xlink="http://www.w3.org/1999/xlink" version="1.1"><g stroke-width="1" stroke-linejoin="bevel"><path d="M418 290.1L353 335.9L460 350.9Z" fill="#121b2e" stroke="#C0C0C0"></path><path d="M353 335.9L395 396.6L460 350.9Z" fill="#334155" stroke="#C0C0C0"></path><path d="M395 396.6L469 424.6L460 350.9Z" fill="#202b3f" stroke="#C0C0C0"></path><path d="M469 424.6L504 399.6L460 350.9Z" fill="#1d273b" stroke="#C0C0C0"></path><path d="M460 350.9L504 223.1L418 290.1Z" fill="#2f3c51" stroke="#C0C0C0"></path><path d="M418 290.1L324 251.1L353 335.9Z" fill="#161f32" stroke="#C0C0C0"></path><path d="M504 399.6L542 337.9L460 350.9Z" fill="#2b384c" stroke="#C0C0C0"></path><path d="M418 290.1L345 172.4L324 251.1Z" fill="#161f32" stroke="#C0C0C0"></path><path d="M324 251.1L266 358.9L353 335.9Z" fill="#1d273b" stroke="#C0C0C0"></path><path d="M353 335.9L266 358.9L395 396.6Z" fill="#192336" stroke="#C0C0C0"></path><path d="M395 396.6L429 534.3L469 424.6Z" fill="#192336" stroke="#C0C0C0"></path><path d="M542 337.9L504 223.1L460 350.9Z" fill="#202b3f" stroke="#C0C0C0"></path><path d="M345 172.4L271 240.1L324 251.1Z" fill="#2b384c" stroke="#C0C0C0"></path><path d="M324 251.1L271 240.1L266 358.9Z" fill="#1d273b" stroke="#C0C0C0"></path><path d="M453 140.4L345 172.4L418 290.1Z" fill="#273448" stroke="#C0C0C0"></path><path d="M205 498.3L251 439.6L162 427.6Z" fill="#161f32" stroke="#C0C0C0"></path><path d="M266 358.9L251 439.6L395 396.6Z" fill="#161f32" stroke="#C0C0C0"></path><path d="M342 545.3L429 534.3L395 396.6Z" fill="#2f3c51" stroke="#C0C0C0"></path><path d="M469 424.6L524 514.3L504 399.6Z" fill="#334155" stroke="#C0C0C0"></path><path d="M648 432.6L645 351.9L542 337.9Z" fill="#121b2e" stroke="#C0C0C0"></path><path d="M429 534.3L524 514.3L469 424.6Z" fill="#242f43" stroke="#C0C0C0"></path><path d="M504 223.1L453 140.4L418 290.1Z" fill="#0f172a" stroke="#C0C0C0"></path><path d="M647 192.4L536 176.4L504 223.1Z" fill="#273448" stroke="#C0C0C0"></path><path d="M504 223.1L536 176.4L453 140.4Z" fill="#242f43" stroke="#C0C0C0"></path><path d="M251 439.6L342 545.3L395 396.6Z" fill="#242f43" stroke="#C0C0C0"></path><path d="M345 172.4L239 197.4L271 240.1Z" fill="#192336" stroke="#C0C0C0"></path><path d="M164 240.1L150 363.9L266 358.9Z" fill="#334155" stroke="#C0C0C0"></path><path d="M240 73.7L239 197.4L345 172.4Z" fill="#192336" stroke="#C0C0C0"></path><path d="M251 439.6L276 540.3L342 545.3Z" fill="#121b2e" stroke="#C0C0C0"></path><path d="M648 432.6L542 337.9L504 399.6Z" fill="#242f43" stroke="#C0C0C0"></path><path d="M542 337.9L668 245.1L504 223.1Z" fill="#334155" stroke="#C0C0C0"></path><path d="M251 439.6L205 498.3L276 540.3Z" fill="#2f3c51" stroke="#C0C0C0"></path><path d="M162 427.6L251 439.6L266 358.9Z" fill="#334155" stroke="#C0C0C0"></path><path d="M647 192.4L536 123.7L536 176.4Z" fill="#2b384c" stroke="#C0C0C0"></path><path d="M536 176.4L536 123.7L453 140.4Z" fill="#121b2e" stroke="#C0C0C0"></path><path d="M164 240.1L266 358.9L271 240.1Z" fill="#202b3f" stroke="#C0C0C0"></path><path d="M524 514.3L648 432.6L504 399.6Z" fill="#1d273b" stroke="#C0C0C0"></path><path d="M342 545.3L424 600L429 534.3Z" fill="#2f3c51" stroke="#C0C0C0"></path><path d="M429 534.3L504 600L524 514.3Z" fill="#2b384c" stroke="#C0C0C0"></path><path d="M524 514.3L640 535.3L648 432.6Z" fill="#334155" stroke="#C0C0C0"></path><path d="M339 600L424 600L342 545.3Z" fill="#2f3c51" stroke="#C0C0C0"></path><path d="M150 363.9L162 427.6L266 358.9Z" fill="#334155" stroke="#C0C0C0"></path><path d="M239 197.4L164 240.1L271 240.1Z" fill="#0f172a" stroke="#C0C0C0"></path><path d="M280 600L342 545.3L276 540.3Z" fill="#0f172a" stroke="#C0C0C0"></path><path d="M280 600L339 600L342 545.3Z" fill="#121b2e" stroke="#C0C0C0"></path><path d="M536 123.7L422 73.7L453 140.4Z" fill="#161f32" stroke="#C0C0C0"></path><path d="M453 140.4L422 73.7L345 172.4Z" fill="#121b2e" stroke="#C0C0C0"></path><path d="M239 197.4L154 155.4L164 240.1Z" fill="#121b2e" stroke="#C0C0C0"></path><path d="M424 600L504 600L429 534.3Z" fill="#2b384c" stroke="#C0C0C0"></path><path d="M702 288.1L668 245.1L645 351.9Z" fill="#334155" stroke="#C0C0C0"></path><path d="M645 351.9L668 245.1L542 337.9Z" fill="#2b384c" stroke="#C0C0C0"></path><path d="M422 73.7L361 64.7L345 172.4Z" fill="#273448" stroke="#C0C0C0"></path><path d="M668 245.1L647 192.4L504 223.1Z" fill="#161f32" stroke="#C0C0C0"></path><path d="M145 600L280 600L276 540.3Z" fill="#242f43" stroke="#C0C0C0"></path><path d="M648 432.6L700 337.9L645 351.9Z" fill="#1d273b" stroke="#C0C0C0"></path><path d="M700 337.9L702 288.1L645 351.9Z" fill="#192336" stroke="#C0C0C0"></path><path d="M668 245.1L750 148.4L647 192.4Z" fill="#242f43" stroke="#C0C0C0"></path><path d="M613 600L640 535.3L524 514.3Z" fill="#2f3c51" stroke="#C0C0C0"></path><path d="M648 432.6L742 458.6L700 337.9Z" fill="#2f3c51" stroke="#C0C0C0"></path><path d="M215 86.7L154 155.4L239 197.4Z" fill="#121b2e" stroke="#C0C0C0"></path><path d="M71 366.9L89 452.6L150 363.9Z" fill="#273448" stroke="#C0C0C0"></path><path d="M361 64.7L240 73.7L345 172.4Z" fill="#121b2e" stroke="#C0C0C0"></path><path d="M240 73.7L215 86.7L239 197.4Z" fill="#192336" stroke="#C0C0C0"></path><path d="M504 600L613 600L524 514.3Z" fill="#192336" stroke="#C0C0C0"></path><path d="M71 366.9L150 363.9L61 256.1Z" fill="#2f3c51" stroke="#C0C0C0"></path><path d="M150 363.9L89 452.6L162 427.6Z" fill="#273448" stroke="#C0C0C0"></path><path d="M162 427.6L89 452.6L205 498.3Z" fill="#273448" stroke="#C0C0C0"></path><path d="M205 498.3L145 600L276 540.3Z" fill="#0f172a" stroke="#C0C0C0"></path><path d="M61 256.1L150 363.9L164 240.1Z" fill="#121b2e" stroke="#C0C0C0"></path><path d="M422 73.7L435 0L361 64.7Z" fill="#334155" stroke="#C0C0C0"></path><path d="M361 64.7L356 0L240 73.7Z" fill="#0f172a" stroke="#C0C0C0"></path><path d="M556 0L435 0L422 73.7Z" fill="#121b2e" stroke="#C0C0C0"></path><path d="M556 0L422 73.7L536 123.7Z" fill="#242f43" stroke="#C0C0C0"></path><path d="M435 0L356 0L361 64.7Z" fill="#202b3f" stroke="#C0C0C0"></path><path d="M240 73.7L232 0L215 86.7Z" fill="#2f3c51" stroke="#C0C0C0"></path><path d="M732 113.7L620 66.7L647 192.4Z" fill="#242f43" stroke="#C0C0C0"></path><path d="M647 192.4L620 66.7L536 123.7Z" fill="#192336" stroke="#C0C0C0"></path><path d="M739 500.3L648 432.6L640 535.3Z" fill="#273448" stroke="#C0C0C0"></path><path d="M739 500.3L742 458.6L648 432.6Z" fill="#2f3c51" stroke="#C0C0C0"></path><path d="M700 337.9L828 334.9L702 288.1Z" fill="#121b2e" stroke="#C0C0C0"></path><path d="M55 178.4L164 240.1L154 155.4Z" fill="#2b384c" stroke="#C0C0C0"></path><path d="M55 178.4L61 256.1L164 240.1Z" fill="#1d273b" stroke="#C0C0C0"></path><path d="M60 510.3L145 600L205 498.3Z" fill="#242f43" stroke="#C0C0C0"></path><path d="M720 600L739 500.3L640 535.3Z" fill="#2f3c51" stroke="#C0C0C0"></path><path d="M620 66.7L556 0L536 123.7Z" fill="#242f43" stroke="#C0C0C0"></path><path d="M356 0L232 0L240 73.7Z" fill="#2b384c" stroke="#C0C0C0"></path><path d="M58 112.7L55 178.4L154 155.4Z" fill="#161f32" stroke="#C0C0C0"></path><path d="M0 439.6L60 510.3L89 452.6Z" fill="#334155" stroke="#C0C0C0"></path><path d="M89 452.6L60 510.3L205 498.3Z" fill="#161f32" stroke="#C0C0C0"></path><path d="M0 439.6L89 452.6L71 366.9Z" fill="#334155" stroke="#C0C0C0"></path><path d="M58 112.7L154 155.4L119 0Z" fill="#334155" stroke="#C0C0C0"></path><path d="M61 256.1L0 307.9L71 366.9Z" fill="#161f32" stroke="#C0C0C0"></path><path d="M809 208.4L668 245.1L702 288.1Z" fill="#334155" stroke="#C0C0C0"></path><path d="M809 208.4L750 148.4L668 245.1Z" fill="#0f172a" stroke="#C0C0C0"></path><path d="M620 66.7L649 0L556 0Z" fill="#161f32" stroke="#C0C0C0"></path><path d="M750 148.4L732 113.7L647 192.4Z" fill="#273448" stroke="#C0C0C0"></path><path d="M613 600L720 600L640 535.3Z" fill="#2b384c" stroke="#C0C0C0"></path><path d="M739 500.3L797 453.6L742 458.6Z" fill="#192336" stroke="#C0C0C0"></path><path d="M742 458.6L797 453.6L700 337.9Z" fill="#242f43" stroke="#C0C0C0"></path><path d="M811 500.3L797 453.6L739 500.3Z" fill="#2b384c" stroke="#C0C0C0"></path><path d="M0 238.1L0 307.9L61 256.1Z" fill="#121b2e" stroke="#C0C0C0"></path><path d="M60 510.3L81 600L145 600Z" fill="#242f43" stroke="#C0C0C0"></path><path d="M0 550.3L81 600L60 510.3Z" fill="#0f172a" stroke="#C0C0C0"></path><path d="M55 178.4L0 238.1L61 256.1Z" fill="#202b3f" stroke="#C0C0C0"></path><path d="M146 0L154 155.4L215 86.7Z" fill="#161f32" stroke="#C0C0C0"></path><path d="M0 307.9L0 439.6L71 366.9Z" fill="#242f43" stroke="#C0C0C0"></path><path d="M0 189.4L0 238.1L55 178.4Z" fill="#202b3f" stroke="#C0C0C0"></path><path d="M717 0L649 0L620 66.7Z" fill="#334155" stroke="#C0C0C0"></path><path d="M797 453.6L828 334.9L700 337.9Z" fill="#2b384c" stroke="#C0C0C0"></path><path d="M828 334.9L809 208.4L702 288.1Z" fill="#192336" stroke="#C0C0C0"></path><path d="M750 148.4L817 56.7L732 113.7Z" fill="#2f3c51" stroke="#C0C0C0"></path><path d="M732 113.7L717 0L620 66.7Z" fill="#0f172a" stroke="#C0C0C0"></path><path d="M232 0L146 0L215 86.7Z" fill="#334155" stroke="#C0C0C0"></path><path d="M824 600L811 500.3L739 500.3Z" fill="#161f32" stroke="#C0C0C0"></path><path d="M900 396.6L900 317.9L828 334.9Z" fill="#0f172a" stroke="#C0C0C0"></path><path d="M58 112.7L0 189.4L55 178.4Z" fill="#242f43" stroke="#C0C0C0"></path><path d="M146 0L119 0L154 155.4Z" fill="#242f43" stroke="#C0C0C0"></path><path d="M58 112.7L0 49.7L0 189.4Z" fill="#2b384c" stroke="#C0C0C0"></path><path d="M900 285.1L841 221.1L828 334.9Z" fill="#242f43" stroke="#C0C0C0"></path><path d="M828 334.9L841 221.1L809 208.4Z" fill="#334155" stroke="#C0C0C0"></path><path d="M900 123.7L817 56.7L750 148.4Z" fill="#121b2e" stroke="#C0C0C0"></path><path d="M0 439.6L0 550.3L60 510.3Z" fill="#0f172a" stroke="#C0C0C0"></path><path d="M817 56.7L717 0L732 113.7Z" fill="#161f32" stroke="#C0C0C0"></path><path d="M0 550.3L0 600L81 600Z" fill="#242f43" stroke="#C0C0C0"></path><path d="M720 600L824 600L739 500.3Z" fill="#0f172a" stroke="#C0C0C0"></path><path d="M900 396.6L828 334.9L797 453.6Z" fill="#161f32" stroke="#C0C0C0"></path><path d="M900 396.6L797 453.6L811 500.3Z" fill="#0f172a" stroke="#C0C0C0"></path><path d="M900 123.7L750 148.4L809 208.4Z" fill="#242f43" stroke="#C0C0C0"></path><path d="M900 540.3L900 396.6L811 500.3Z" fill="#0f172a" stroke="#C0C0C0"></path><path d="M900 317.9L900 285.1L828 334.9Z" fill="#334155" stroke="#C0C0C0"></path><path d="M900 123.7L809 208.4L841 221.1Z" fill="#1d273b" stroke="#C0C0C0"></path><path d="M119 0L0 49.7L58 112.7Z" fill="#161f32" stroke="#C0C0C0"></path><path d="M900 285.1L900 198.4L841 221.1Z" fill="#202b3f" stroke="#C0C0C0"></path><path d="M824 600L900 540.3L811 500.3Z" fill="#2b384c" stroke="#C0C0C0"></path><path d="M119 0L0 0L0 49.7Z" fill="#161f32" stroke="#C0C0C0"></path><path d="M900 198.4L900 123.7L841 221.1Z" fill="#273448" stroke="#C0C0C0"></path><path d="M900 0L835 0L817 56.7Z" fill="#202b3f" stroke="#C0C0C0"></path><path d="M817 56.7L835 0L717 0Z" fill="#121b2e" stroke="#C0C0C0"></path><path d="M824 600L900 600L900 540.3Z" fill="#192336" stroke="#C0C0C0"></path><path d="M900 123.7L900 0L817 56.7Z" fill="#2f3c51" stroke="#C0C0C0"></path></g></svg>