<svg id="visual" viewBox="0 0 900 600" width="900" height="600" xmlns="http://www.w3.org/2000/svg" xmlns:xlink="http://www.w3.org/1999/xlink" version="1.1"><g><g transform="translate(323 215)"><path d="M0 -103.3L73 -73L103.3 0L73 73L0 103.3L-73 73L-103.3 0L-73 -73Z" stroke="#C0C0C0" fill="none" stroke-width="2"></path></g><g transform="translate(408 8)"><path d="M0 -102L72.1 -72.1L102 0L72.1 72.1L0 102L-72.1 72.1L-102 0L-72.1 -72.1Z" stroke="#C0C0C0" fill="none" stroke-width="2"></path></g><g transform="translate(122 45)"><path d="M0 -91L64.3 -64.3L91 0L64.3 64.3L0 91L-64.3 64.3L-91 0L-64.3 -64.3Z" stroke="#C0C0C0" fill="none" stroke-width="2"></path></g><g transform="translate(623 56)"><path d="M0 -100L70.7 -70.7L100 0L70.7 70.7L0 100L-70.7 70.7L-100 0L-70.7 -70.7Z" stroke="#C0C0C0" fill="none" stroke-width="2"></path></g><g transform="translate(848 393)"><path d="M0 -101L71.4 -71.4L101 0L71.4 71.4L0 101L-71.4 71.4L-101 0L-71.4 -71.4Z" stroke="#C0C0C0" fill="none" stroke-width="2"></path></g><g transform="translate(587 446)"><path d="M0 -98L69.3 -69.3L98 0L69.3 69.3L0 98L-69.3 69.3L-98 0L-69.3 -69.3Z" stroke="#C0C0C0" fill="none" stroke-width="2"></path></g><g transform="translate(843 121)"><path d="M0 -98L69.3 -69.3L98 0L69.3 69.3L0 98L-69.3 69.3L-98 0L-69.3 -69.3Z" stroke="#C0C0C0" fill="none" stroke-width="2"></path></g><g transform="translate(257 430)"><path d="M0 -97L68.6 -68.6L97 0L68.6 68.6L0 97L-68.6 68.6L-97 0L-68.6 -68.6Z" stroke="#C0C0C0" fill="none" stroke-width="2"></path></g></g></svg>