<svg id="visual" viewBox="0 0 900 600" width="900" height="600" xmlns="http://www.w3.org/2000/svg" xmlns:xlink="http://www.w3.org/1999/xlink" version="1.1"><g><g transform="translate(880 359)"><path d="M0 -80.1L56.6 -56.6L80.1 0L56.6 56.6L0 80.1L-56.6 56.6L-80.1 0L-56.6 -56.6Z" fill="none" stroke="#C0C0C0" stroke-width="2"></path></g><g transform="translate(615 277)"><path d="M0 -61L43.1 -43.1L61 0L43.1 43.1L0 61L-43.1 43.1L-61 0L-43.1 -43.1Z" fill="none" stroke="#C0C0C0" stroke-width="2"></path></g><g transform="translate(776 540)"><path d="M0 -30L21.2 -21.2L30 0L21.2 21.2L0 30L-21.2 21.2L-30 0L-21.2 -21.2Z" stroke="#C0C0C0" fill="none" stroke-width="2"></path></g><g transform="translate(24 533)"><path d="M0 -36L25.5 -25.5L36 0L25.5 25.5L0 36L-25.5 25.5L-36 0L-25.5 -25.5Z" stroke="#C0C0C0" fill="none" stroke-width="2"></path></g><g transform="translate(636 452)"><path d="M0 -59L41.7 -41.7L59 0L41.7 41.7L0 59L-41.7 41.7L-59 0L-41.7 -41.7Z" stroke="#C0C0C0" fill="none" stroke-width="2"></path></g></g></svg>