<svg id="visual" viewBox="0 0 900 600" width="900" height="600" xmlns="http://www.w3.org/2000/svg" xmlns:xlink="http://www.w3.org/1999/xlink" version="1.1"><g><g transform="translate(325 514)"><path d="M0 -80.1L56.6 -56.6L80.1 0L56.6 56.6L0 80.1L-56.6 56.6L-80.1 0L-56.6 -56.6Z" fill="none" stroke="#C0C0C0" stroke-width="2"></path></g><g transform="translate(228 285)"><path d="M0 -35L24.7 -24.7L35 0L24.7 24.7L0 35L-24.7 24.7L-35 0L-24.7 -24.7Z" fill="none" stroke="#C0C0C0" stroke-width="2"></path></g><g transform="translate(432 157)"><path d="M0 -47L33.2 -33.2L47 0L33.2 33.2L0 47L-33.2 33.2L-47 0L-33.2 -33.2Z" stroke="#C0C0C0" fill="none" stroke-width="2"></path></g><g transform="translate(646 13)"><path d="M0 -68L48.1 -48.1L68 0L48.1 48.1L0 68L-48.1 48.1L-68 0L-48.1 -48.1Z" stroke="#C0C0C0" fill="none" stroke-width="2"></path></g><g transform="translate(261 76)"><path d="M0 -60L42.4 -42.4L60 0L42.4 42.4L0 60L-42.4 42.4L-60 0L-42.4 -42.4Z" stroke="#C0C0C0" fill="none" stroke-width="2"></path></g></g></svg>