<svg id="visual" viewBox="0 0 900 600" width="900" height="600" xmlns="http://www.w3.org/2000/svg" xmlns:xlink="http://www.w3.org/1999/xlink" version="1.1"><g><g transform="translate(483 597)"><path d="M0 -45.8L32.4 -32.4L45.8 0L32.4 32.4L0 45.8L-32.4 32.4L-45.8 0L-32.4 -32.4Z" fill="none" stroke="#C0C0C0" stroke-width="2"></path></g><g transform="translate(387 65)"><path d="M0 -8L5.7 -5.7L8 0L5.7 5.7L0 8L-5.7 5.7L-8 0L-5.7 -5.7Z" fill="none" stroke="#C0C0C0" stroke-width="2"></path></g><g transform="translate(770 201)"><path d="M0 -25L17.7 -17.7L25 0L17.7 17.7L0 25L-17.7 17.7L-25 0L-17.7 -17.7Z" stroke="#C0C0C0" fill="none" stroke-width="2"></path></g><g transform="translate(447 398)"><path d="M0 -26L18.4 -18.4L26 0L18.4 18.4L0 26L-18.4 18.4L-26 0L-18.4 -18.4Z" stroke="#C0C0C0" fill="none" stroke-width="2"></path></g><g transform="translate(172 221)"><path d="M0 -39L27.6 -27.6L39 0L27.6 27.6L0 39L-27.6 27.6L-39 0L-27.6 -27.6Z" stroke="#C0C0C0" fill="none" stroke-width="2"></path></g><g transform="translate(148 81)"><path d="M0 -28L19.8 -19.8L28 0L19.8 19.8L0 28L-19.8 19.8L-28 0L-19.8 -19.8Z" stroke="#C0C0C0" fill="none" stroke-width="2"></path></g><g transform="translate(59 287)"><path d="M0 -43L30.4 -30.4L43 0L30.4 30.4L0 43L-30.4 30.4L-43 0L-30.4 -30.4Z" stroke="#C0C0C0" fill="none" stroke-width="2"></path></g><g transform="translate(450 197)"><path d="M0 -18L12.7 -12.7L18 0L12.7 12.7L0 18L-12.7 12.7L-18 0L-12.7 -12.7Z" stroke="#C0C0C0" fill="none" stroke-width="2"></path></g><g transform="translate(634 233)"><path d="M0 -36L25.5 -25.5L36 0L25.5 25.5L0 36L-25.5 25.5L-36 0L-25.5 -25.5Z" stroke="#C0C0C0" fill="none" stroke-width="2"></path></g><g transform="translate(347 482)"><path d="M0 -40L28.3 -28.3L40 0L28.3 28.3L0 40L-28.3 28.3L-40 0L-28.3 -28.3Z" stroke="#C0C0C0" fill="none" stroke-width="2"></path></g><g transform="translate(6 95)"><path d="M0 -21L14.8 -14.8L21 0L14.8 14.8L0 21L-14.8 14.8L-21 0L-14.8 -14.8Z" stroke="#C0C0C0" fill="none" stroke-width="2"></path></g><g transform="translate(275 587)"><path d="M0 -44L31.1 -31.1L44 0L31.1 31.1L0 44L-31.1 31.1L-44 0L-31.1 -31.1Z" stroke="#C0C0C0" fill="none" stroke-width="2"></path></g><g transform="translate(897 378)"><path d="M0 -38L26.9 -26.9L38 0L26.9 26.9L0 38L-26.9 26.9L-38 0L-26.9 -26.9Z" stroke="#C0C0C0" fill="none" stroke-width="2"></path></g><g transform="translate(603 444)"><path d="M0 -17L12 -12L17 0L12 12L0 17L-12 12L-17 0L-12 -12Z" stroke="#C0C0C0" fill="none" stroke-width="2"></path></g><g transform="translate(186 412)"><path d="M0 -27L19.1 -19.1L27 0L19.1 19.1L0 27L-19.1 19.1L-27 0L-19.1 -19.1Z" stroke="#C0C0C0" fill="none" stroke-width="2"></path></g><g transform="translate(892 517)"><path d="M0 -15L10.6 -10.6L15 0L10.6 10.6L0 15L-10.6 10.6L-15 0L-10.6 -10.6Z" stroke="#C0C0C0" fill="none" stroke-width="2"></path></g><g transform="translate(802 385)"><path d="M0 -22L15.6 -15.6L22 0L15.6 15.6L0 22L-15.6 15.6L-22 0L-15.6 -15.6Z" stroke="#C0C0C0" fill="none" stroke-width="2"></path></g><g transform="translate(742 516)"><path d="M0 -32L22.6 -22.6L32 0L22.6 22.6L0 32L-22.6 22.6L-32 0L-22.6 -22.6Z" stroke="#C0C0C0" fill="none" stroke-width="2"></path></g><g transform="translate(524 328)"><path d="M0 -15L10.6 -10.6L15 0L10.6 10.6L0 15L-10.6 10.6L-15 0L-10.6 -10.6Z" stroke="#C0C0C0" fill="none" stroke-width="2"></path></g><g transform="translate(628 558)"><path d="M0 -5L3.5 -3.5L5 0L3.5 3.5L0 5L-3.5 3.5L-5 0L-3.5 -3.5Z" stroke="#C0C0C0" fill="none" stroke-width="2"></path></g><g transform="translate(432 300)"><path d="M0 -42L29.7 -29.7L42 0L29.7 29.7L0 42L-29.7 29.7L-42 0L-29.7 -29.7Z" stroke="#C0C0C0" fill="none" stroke-width="2"></path></g><g transform="translate(283 304)"><path d="M0 -7L4.9 -4.9L7 0L4.9 4.9L0 7L-4.9 4.9L-7 0L-4.9 -4.9Z" stroke="#C0C0C0" fill="none" stroke-width="2"></path></g><g transform="translate(108 524)"><path d="M0 -10L7.1 -7.1L10 0L7.1 7.1L0 10L-7.1 7.1L-10 0L-7.1 -7.1Z" stroke="#C0C0C0" fill="none" stroke-width="2"></path></g><g transform="translate(336 207)"><path d="M0 -44L31.1 -31.1L44 0L31.1 31.1L0 44L-31.1 31.1L-44 0L-31.1 -31.1Z" stroke="#C0C0C0" fill="none" stroke-width="2"></path></g><g transform="translate(861 99)"><path d="M0 -34L24 -24L34 0L24 24L0 34L-24 24L-34 0L-24 -24Z" stroke="#C0C0C0" fill="none" stroke-width="2"></path></g><g transform="translate(723 2)"><path d="M0 -19L13.4 -13.4L19 0L13.4 13.4L0 19L-13.4 13.4L-19 0L-13.4 -13.4Z" stroke="#C0C0C0" fill="none" stroke-width="2"></path></g><g transform="translate(604 136)"><path d="M0 -27L19.1 -19.1L27 0L19.1 19.1L0 27L-19.1 19.1L-27 0L-19.1 -19.1Z" stroke="#C0C0C0" fill="none" stroke-width="2"></path></g><g transform="translate(20 194)"><path d="M0 -9L6.4 -6.4L9 0L6.4 6.4L0 9L-6.4 6.4L-9 0L-6.4 -6.4Z" stroke="#C0C0C0" fill="none" stroke-width="2"></path></g><g transform="translate(593 30)"><path d="M0 -35L24.7 -24.7L35 0L24.7 24.7L0 35L-24.7 24.7L-35 0L-24.7 -24.7Z" stroke="#C0C0C0" fill="none" stroke-width="2"></path></g><g transform="translate(293 105)"><path d="M0 -21L14.8 -14.8L21 0L14.8 14.8L0 21L-14.8 14.8L-21 0L-14.8 -14.8Z" stroke="#C0C0C0" fill="none" stroke-width="2"></path></g><g transform="translate(866 212)"><path d="M0 -10L7.1 -7.1L10 0L7.1 7.1L0 10L-7.1 7.1L-10 0L-7.1 -7.1Z" stroke="#C0C0C0" fill="none" stroke-width="2"></path></g><g transform="translate(345 380)"><path d="M0 -34L24 -24L34 0L24 24L0 34L-24 24L-34 0L-24 -24Z" stroke="#C0C0C0" fill="none" stroke-width="2"></path></g><g transform="translate(60 419)"><path d="M0 -35L24.7 -24.7L35 0L24.7 24.7L0 35L-24.7 24.7L-35 0L-24.7 -24.7Z" stroke="#C0C0C0" fill="none" stroke-width="2"></path></g><g transform="translate(736 102)"><path d="M0 -44L31.1 -31.1L44 0L31.1 31.1L0 44L-31.1 31.1L-44 0L-31.1 -31.1Z" stroke="#C0C0C0" fill="none" stroke-width="2"></path></g><g transform="translate(817 11)"><path d="M0 -5L3.5 -3.5L5 0L3.5 3.5L0 5L-3.5 3.5L-5 0L-3.5 -3.5Z" stroke="#C0C0C0" fill="none" stroke-width="2"></path></g><g transform="translate(850 598)"><path d="M0 -17L12 -12L17 0L12 12L0 17L-12 12L-17 0L-12 -12Z" stroke="#C0C0C0" fill="none" stroke-width="2"></path></g><g transform="translate(488 17)"><path d="M0 -8L5.7 -5.7L8 0L5.7 5.7L0 8L-5.7 5.7L-8 0L-5.7 -5.7Z" stroke="#C0C0C0" fill="none" stroke-width="2"></path></g><g transform="translate(757 295)"><path d="M0 -20L14.1 -14.1L20 0L14.1 14.1L0 20L-14.1 14.1L-20 0L-14.1 -14.1Z" stroke="#C0C0C0" fill="none" stroke-width="2"></path></g><g transform="translate(467 507)"><path d="M0 -21L14.8 -14.8L21 0L14.8 14.8L0 21L-14.8 14.8L-21 0L-14.8 -14.8Z" stroke="#C0C0C0" fill="none" stroke-width="2"></path></g><g transform="translate(34 593)"><path d="M0 -18L12.7 -12.7L18 0L12.7 12.7L0 18L-12.7 12.7L-18 0L-12.7 -12.7Z" stroke="#C0C0C0" fill="none" stroke-width="2"></path></g><g transform="translate(68 7)"><path d="M0 -15L10.6 -10.6L15 0L10.6 10.6L0 15L-10.6 10.6L-15 0L-10.6 -10.6Z" stroke="#C0C0C0" fill="none" stroke-width="2"></path></g><g transform="translate(220 12)"><path d="M0 -22L15.6 -15.6L22 0L15.6 15.6L0 22L-15.6 15.6L-22 0L-15.6 -15.6Z" stroke="#C0C0C0" fill="none" stroke-width="2"></path></g><g transform="translate(706 375)"><path d="M0 -24L17 -17L24 0L17 17L0 24L-17 17L-24 0L-17 -17Z" stroke="#C0C0C0" fill="none" stroke-width="2"></path></g><g transform="translate(249 485)"><path d="M0 -38L26.9 -26.9L38 0L26.9 26.9L0 38L-26.9 26.9L-38 0L-26.9 -26.9Z" stroke="#C0C0C0" fill="none" stroke-width="2"></path></g><g transform="translate(619 329)"><path d="M0 -27L19.1 -19.1L27 0L19.1 19.1L0 27L-19.1 19.1L-27 0L-19.1 -19.1Z" stroke="#C0C0C0" fill="none" stroke-width="2"></path></g><g transform="translate(389 583)"><path d="M0 -29L20.5 -20.5L29 0L20.5 20.5L0 29L-20.5 20.5L-29 0L-20.5 -20.5Z" stroke="#C0C0C0" fill="none" stroke-width="2"></path></g><g transform="translate(179 591)"><path d="M0 -22L15.6 -15.6L22 0L15.6 15.6L0 22L-15.6 15.6L-22 0L-15.6 -15.6Z" stroke="#C0C0C0" fill="none" stroke-width="2"></path></g><g transform="translate(541 231)"><path d="M0 -40L28.3 -28.3L40 0L28.3 28.3L0 40L-28.3 28.3L-40 0L-28.3 -28.3Z" stroke="#C0C0C0" fill="none" stroke-width="2"></path></g><g transform="translate(163 313)"><path d="M0 -38L26.9 -26.9L38 0L26.9 26.9L0 38L-26.9 26.9L-38 0L-26.9 -26.9Z" stroke="#C0C0C0" fill="none" stroke-width="2"></path></g><g transform="translate(485 113)"><path d="M0 -28L19.8 -19.8L28 0L19.8 19.8L0 28L-19.8 19.8L-28 0L-19.8 -19.8Z" stroke="#C0C0C0" fill="none" stroke-width="2"></path></g><g transform="translate(16 501)"><path d="M0 -10L7.1 -7.1L10 0L7.1 7.1L0 10L-7.1 7.1L-10 0L-7.1 -7.1Z" stroke="#C0C0C0" fill="none" stroke-width="2"></path></g></g></svg>